<svg xmlns="http://www.w3.org/2000/svg" viewBox="0 0 64 64">
  <defs>
    <linearGradient id="car-gradient" x1="0" y1="0" x2="1" y2="1">
      <stop offset="0" stop-color="#3470FF" />
      <stop offset="1" stop-color="#0B44CD" />
    </linearGradient>
  </defs>
  <rect x="4" y="4" width="56" height="56" rx="16" fill="#F2F4F7" />
  <path
    d="M18 30c.6-2.6 2.3-4.8 4.7-6.1L30 20h12l4 4 4 2c2.2 1.1 3.7 3.3 4 5.8L55 36c.2 1.6-.2 3.3-1.2 4.5C52.7 42 51.2 42.7 49.6 42.7H48c-.6 2.4-2.7 4.3-5.3 4.3s-4.7-1.9-5.3-4.3H31.6c-.6 2.4-2.7 4.3-5.3 4.3s-4.7-1.9-5.3-4.3h-1.3c-1.8 0-3.4-.8-4.4-2.2-.9-1.2-1.3-2.9-1.1-4.5L18 30Z"
    fill="url(#car-gradient)"
  />
  <circle cx="26" cy="38" r="3" fill="#FFFFFF" />
  <circle cx="42" cy="38" r="3" fill="#FFFFFF" />
</svg>


